M48
; DRILL file {KiCad 5.1.5} date Wed 05 Feb 2020 11:09:01 GMT
; FORMAT={-:-/ absolute / metric / decimal}
; #@! TF.CreationDate,2020-02-05T11:09:01+00:00
; #@! TF.GenerationSoftware,Kicad,Pcbnew,5.1.5
; #@! TF.FileFunction,Plated,1,2,PTH
FMAT,2
METRIC
T1C0.800
T2C0.900
T3C1.000
T4C1.016
%
G90
G05
T1
X95.25Y-82.55
X95.25Y-92.71
T2
X95.25Y-76.2
X95.25Y-78.74
T3
X67.31Y-78.74
X67.31Y-91.44
X69.85Y-83.82
X62.865Y-99.06
X65.405Y-99.06
X67.945Y-99.06
X95.25Y-97.79
X95.25Y-100.33
X50.165Y-99.06
X52.705Y-99.06
X55.245Y-99.06
X54.61Y-78.74
X54.61Y-91.44
X57.15Y-83.82
X60.96Y-78.74
X60.96Y-91.44
X63.5Y-83.82
X48.26Y-78.74
X48.26Y-91.44
X50.8Y-83.82
T4
X78.74Y-78.74
X78.74Y-81.28
X81.28Y-78.74
X81.28Y-81.28
X83.82Y-78.74
X83.82Y-81.28
X86.36Y-78.74
X86.36Y-81.28
X78.74Y-88.9
X78.74Y-91.44
X81.28Y-88.9
X81.28Y-91.44
X83.82Y-88.9
X83.82Y-91.44
X86.36Y-88.9
X86.36Y-91.44
T0
M30
