G04 #@! TF.GenerationSoftware,KiCad,Pcbnew,5.1.5*
G04 #@! TF.CreationDate,2020-02-05T11:08:59+00:00*
G04 #@! TF.ProjectId,BSPD_Tester,42535044-5f54-4657-9374-65722e6b6963,rev?*
G04 #@! TF.SameCoordinates,Original*
G04 #@! TF.FileFunction,Copper,L2,Bot*
G04 #@! TF.FilePolarity,Positive*
%FSLAX46Y46*%
G04 Gerber Fmt 4.6, Leading zero omitted, Abs format (unit mm)*
G04 Created by KiCad (PCBNEW 5.1.5) date 2020-02-05 11:08:59*
%MOMM*%
%LPD*%
G04 APERTURE LIST*
%ADD10O,1.700000X1.700000*%
%ADD11R,1.700000X1.700000*%
%ADD12O,1.600000X1.600000*%
%ADD13C,1.600000*%
%ADD14C,1.800000*%
%ADD15R,1.800000X1.800000*%
%ADD16O,1.727200X1.727200*%
%ADD17R,1.727200X1.727200*%
%ADD18C,0.254000*%
G04 APERTURE END LIST*
D10*
X95250000Y-97790000D03*
D11*
X95250000Y-100330000D03*
D12*
X95250000Y-92710000D03*
D13*
X95250000Y-82550000D03*
D14*
X95250000Y-78740000D03*
D15*
X95250000Y-76200000D03*
D14*
X67310000Y-78740000D03*
X69850000Y-83820000D03*
X67310000Y-91440000D03*
X60960000Y-78740000D03*
X63500000Y-83820000D03*
X60960000Y-91440000D03*
X54610000Y-78740000D03*
X57150000Y-83820000D03*
X54610000Y-91440000D03*
X48260000Y-78740000D03*
X50800000Y-83820000D03*
X48260000Y-91440000D03*
D16*
X78740000Y-81280000D03*
X78740000Y-78740000D03*
X81280000Y-81280000D03*
X81280000Y-78740000D03*
X83820000Y-81280000D03*
X83820000Y-78740000D03*
X86360000Y-81280000D03*
D17*
X86360000Y-78740000D03*
D10*
X67945000Y-99060000D03*
X65405000Y-99060000D03*
D11*
X62865000Y-99060000D03*
D10*
X55245000Y-99060000D03*
X52705000Y-99060000D03*
D11*
X50165000Y-99060000D03*
D16*
X86360000Y-88900000D03*
X86360000Y-91440000D03*
X83820000Y-88900000D03*
X83820000Y-91440000D03*
X81280000Y-88900000D03*
X81280000Y-91440000D03*
X78740000Y-88900000D03*
D17*
X78740000Y-91440000D03*
D18*
X48260000Y-91440000D02*
X54610000Y-91440000D01*
X54610000Y-91440000D02*
X60960000Y-91440000D01*
X60960000Y-91440000D02*
X67310000Y-91440000D01*
X86360000Y-88900000D02*
X86360000Y-91440000D01*
X92710000Y-82550000D02*
X86360000Y-88900000D01*
X95250000Y-82550000D02*
X92710000Y-82550000D01*
X73152000Y-82804000D02*
X73152000Y-89408000D01*
X71120000Y-91440000D02*
X67310000Y-91440000D01*
X48260000Y-80772000D02*
X71120000Y-80772000D01*
X44196000Y-84836000D02*
X48260000Y-80772000D01*
X71120000Y-80772000D02*
X73152000Y-82804000D01*
X44196000Y-99060000D02*
X44196000Y-84836000D01*
X73152000Y-89408000D02*
X71120000Y-91440000D01*
X47244000Y-102108000D02*
X44196000Y-99060000D01*
X86360000Y-94488000D02*
X78740000Y-102108000D01*
X78740000Y-102108000D02*
X47244000Y-102108000D01*
X86360000Y-91440000D02*
X86360000Y-94488000D01*
X67310000Y-78740000D02*
X60960000Y-78740000D01*
X60960000Y-78740000D02*
X54610000Y-78740000D01*
X54610000Y-78740000D02*
X48260000Y-78740000D01*
X87884000Y-81280000D02*
X86360000Y-81280000D01*
X88900000Y-80264000D02*
X87884000Y-81280000D01*
X81280000Y-88900000D02*
X81280000Y-81280000D01*
X78740000Y-88900000D02*
X81280000Y-88900000D01*
X81280000Y-88900000D02*
X83820000Y-88900000D01*
X86360000Y-81280000D02*
X83820000Y-81280000D01*
X83820000Y-81280000D02*
X81280000Y-81280000D01*
X95250000Y-76200000D02*
X88900000Y-76200000D01*
X88900000Y-76200000D02*
X88900000Y-80264000D01*
X70612000Y-78740000D02*
X75692000Y-73660000D01*
X67310000Y-78740000D02*
X70612000Y-78740000D01*
X75692000Y-73660000D02*
X86360000Y-73660000D01*
X86360000Y-73660000D02*
X88900000Y-76200000D01*
X67945000Y-96520000D02*
X65405000Y-99060000D01*
X83820000Y-91440000D02*
X83820000Y-94488000D01*
X81788000Y-96520000D02*
X67945000Y-96520000D01*
X83820000Y-94488000D02*
X81788000Y-96520000D01*
X80264000Y-94488000D02*
X57277000Y-94488000D01*
X57277000Y-94488000D02*
X52705000Y-99060000D01*
X81280000Y-91440000D02*
X81280000Y-93472000D01*
X81280000Y-93472000D02*
X80264000Y-94488000D01*
X76200000Y-91440000D02*
X75184000Y-90424000D01*
X78740000Y-91440000D02*
X76200000Y-91440000D01*
X75184000Y-90424000D02*
X75184000Y-77724000D01*
X86360000Y-76708000D02*
X86360000Y-78740000D01*
X85344000Y-75692000D02*
X86360000Y-76708000D01*
X77216000Y-75692000D02*
X85344000Y-75692000D01*
X75184000Y-77724000D02*
X77216000Y-75692000D01*
X49784000Y-82296000D02*
X45720000Y-86360000D01*
X45720000Y-86360000D02*
X45720000Y-97536000D01*
X45720000Y-97536000D02*
X48768000Y-100584000D01*
X53721000Y-100584000D02*
X55245000Y-99060000D01*
X48768000Y-100584000D02*
X53721000Y-100584000D01*
X55626000Y-82296000D02*
X57150000Y-83820000D01*
X49784000Y-82296000D02*
X55626000Y-82296000D01*
X50165000Y-99060000D02*
X50165000Y-98933000D01*
X48260000Y-99060000D02*
X50165000Y-99060000D01*
X46228000Y-97028000D02*
X48260000Y-99060000D01*
X46228000Y-86868000D02*
X46228000Y-97028000D01*
X50800000Y-83820000D02*
X49276000Y-83820000D01*
X49276000Y-83820000D02*
X46228000Y-86868000D01*
X67310000Y-81280000D02*
X69850000Y-83820000D01*
X67310000Y-81280000D02*
X48768000Y-81280000D01*
X48768000Y-81280000D02*
X44704000Y-85344000D01*
X44704000Y-85344000D02*
X44704000Y-98552000D01*
X44704000Y-98552000D02*
X47752000Y-101600000D01*
X65405000Y-101600000D02*
X67945000Y-99060000D01*
X47752000Y-101600000D02*
X65405000Y-101600000D01*
X61468000Y-81788000D02*
X49276000Y-81788000D01*
X63500000Y-83820000D02*
X61468000Y-81788000D01*
X60833000Y-101092000D02*
X62865000Y-99060000D01*
X45212000Y-85852000D02*
X45212000Y-98044000D01*
X49276000Y-81788000D02*
X45212000Y-85852000D01*
X48260000Y-101092000D02*
X60833000Y-101092000D01*
X45212000Y-98044000D02*
X48260000Y-101092000D01*
X98044000Y-99568000D02*
X98044000Y-81534000D01*
X95250000Y-100330000D02*
X97282000Y-100330000D01*
X98044000Y-81534000D02*
X95250000Y-78740000D01*
X97282000Y-100330000D02*
X98044000Y-99568000D01*
X95250000Y-97790000D02*
X95250000Y-92710000D01*
M02*
